<mxfile host="app.diagrams.net" modified="2024-06-15T20:11:36.521Z" agent="Mozilla/5.0 (Windows NT 10.0; Win64; x64) AppleWebKit/537.36 (KHTML, like Gecko) Chrome/126.0.0.0 Safari/537.36" etag="cYxiltzAjxav4-YvIhyM" version="24.4.9" type="device">
  <diagram name="Page-1" id="JfjGy4kndvTIvYeLvEvc">
    <mxGraphModel dx="1434" dy="892" grid="1" gridSize="10" guides="1" tooltips="1" connect="1" arrows="1" fold="1" page="1" pageScale="1" pageWidth="827" pageHeight="1169" math="0" shadow="0">
      <root>
        <mxCell id="0" />
        <mxCell id="1" parent="0" />
        <mxCell id="t2zR8JG1Dq7IRGJ8YDr1-25" value="Služba održavanja" style="rounded=0;whiteSpace=wrap;html=1;" parent="1" vertex="1">
          <mxGeometry x="320" y="40" width="120" height="60" as="geometry" />
        </mxCell>
        <mxCell id="t2zR8JG1Dq7IRGJ8YDr1-32" value="" style="endArrow=none;html=1;rounded=0;" parent="1" edge="1">
          <mxGeometry width="50" height="50" relative="1" as="geometry">
            <mxPoint x="140" y="120" as="sourcePoint" />
            <mxPoint x="620" y="120" as="targetPoint" />
          </mxGeometry>
        </mxCell>
        <mxCell id="t2zR8JG1Dq7IRGJ8YDr1-35" value="" style="endArrow=none;html=1;rounded=0;" parent="1" target="t2zR8JG1Dq7IRGJ8YDr1-36" edge="1">
          <mxGeometry width="50" height="50" relative="1" as="geometry">
            <mxPoint x="391" y="190" as="sourcePoint" />
            <mxPoint x="391" y="130" as="targetPoint" />
          </mxGeometry>
        </mxCell>
        <mxCell id="t2zR8JG1Dq7IRGJ8YDr1-36" value="Administrator" style="rounded=0;whiteSpace=wrap;html=1;" parent="1" vertex="1">
          <mxGeometry x="321" y="160" width="120" height="60" as="geometry" />
        </mxCell>
        <mxCell id="t2zR8JG1Dq7IRGJ8YDr1-38" value="" style="endArrow=none;html=1;rounded=0;" parent="1" edge="1">
          <mxGeometry width="50" height="50" relative="1" as="geometry">
            <mxPoint x="380.5" y="160" as="sourcePoint" />
            <mxPoint x="380.5" y="120" as="targetPoint" />
          </mxGeometry>
        </mxCell>
        <mxCell id="t2zR8JG1Dq7IRGJ8YDr1-39" value="Izvršitelj" style="rounded=0;whiteSpace=wrap;html=1;" parent="1" vertex="1">
          <mxGeometry x="560" y="160" width="120" height="60" as="geometry" />
        </mxCell>
        <mxCell id="t2zR8JG1Dq7IRGJ8YDr1-40" value="" style="endArrow=none;html=1;rounded=0;" parent="1" edge="1">
          <mxGeometry width="50" height="50" relative="1" as="geometry">
            <mxPoint x="619.5" y="160" as="sourcePoint" />
            <mxPoint x="619.5" y="120" as="targetPoint" />
          </mxGeometry>
        </mxCell>
        <mxCell id="t2zR8JG1Dq7IRGJ8YDr1-41" value="" style="endArrow=none;html=1;rounded=0;" parent="1" target="t2zR8JG1Dq7IRGJ8YDr1-34" edge="1">
          <mxGeometry width="50" height="50" relative="1" as="geometry">
            <mxPoint x="159.5" y="190" as="sourcePoint" />
            <mxPoint x="159.5" y="130" as="targetPoint" />
          </mxGeometry>
        </mxCell>
        <mxCell id="t2zR8JG1Dq7IRGJ8YDr1-34" value="Korisnik" style="whiteSpace=wrap;html=1;" parent="1" vertex="1">
          <mxGeometry x="80" y="160" width="120" height="60" as="geometry" />
        </mxCell>
        <mxCell id="t2zR8JG1Dq7IRGJ8YDr1-43" value="" style="endArrow=none;html=1;rounded=0;" parent="1" edge="1">
          <mxGeometry width="50" height="50" relative="1" as="geometry">
            <mxPoint x="139.5" y="160" as="sourcePoint" />
            <mxPoint x="139.5" y="130" as="targetPoint" />
            <Array as="points">
              <mxPoint x="139.5" y="120" />
            </Array>
          </mxGeometry>
        </mxCell>
        <mxCell id="t2zR8JG1Dq7IRGJ8YDr1-49" value="" style="endArrow=none;html=1;rounded=0;entryX=0.5;entryY=1;entryDx=0;entryDy=0;" parent="1" target="t2zR8JG1Dq7IRGJ8YDr1-25" edge="1">
          <mxGeometry width="50" height="50" relative="1" as="geometry">
            <mxPoint x="380" y="120" as="sourcePoint" />
            <mxPoint x="440" y="100" as="targetPoint" />
          </mxGeometry>
        </mxCell>
        <mxCell id="t2zR8JG1Dq7IRGJ8YDr1-52" value="" style="endArrow=none;html=1;rounded=0;" parent="1" edge="1">
          <mxGeometry width="50" height="50" relative="1" as="geometry">
            <mxPoint x="80" y="470" as="sourcePoint" />
            <mxPoint x="80" y="230" as="targetPoint" />
            <Array as="points">
              <mxPoint x="80" y="220" />
            </Array>
          </mxGeometry>
        </mxCell>
        <mxCell id="t2zR8JG1Dq7IRGJ8YDr1-54" value="Uređivanje&lt;div&gt;naloga&lt;/div&gt;" style="rounded=1;whiteSpace=wrap;html=1;" parent="1" vertex="1">
          <mxGeometry x="120" y="310" width="80" height="50" as="geometry" />
        </mxCell>
        <mxCell id="t2zR8JG1Dq7IRGJ8YDr1-57" value="Pregled&amp;nbsp;&lt;br&gt;prijavljenih&lt;br&gt;&lt;span style=&quot;background-color: initial;&quot;&gt;naloga&lt;/span&gt;" style="rounded=1;whiteSpace=wrap;html=1;" parent="1" vertex="1">
          <mxGeometry x="120" y="380" width="80" height="50" as="geometry" />
        </mxCell>
        <mxCell id="t2zR8JG1Dq7IRGJ8YDr1-63" value="" style="endArrow=none;html=1;rounded=0;" parent="1" edge="1">
          <mxGeometry width="50" height="50" relative="1" as="geometry">
            <mxPoint x="321" y="450" as="sourcePoint" />
            <mxPoint x="321" y="230" as="targetPoint" />
            <Array as="points">
              <mxPoint x="321" y="220" />
            </Array>
          </mxGeometry>
        </mxCell>
        <mxCell id="t2zR8JG1Dq7IRGJ8YDr1-65" value="Upravljanje&lt;div&gt;tipovima naloga&lt;/div&gt;" style="rounded=1;whiteSpace=wrap;html=1;" parent="1" vertex="1">
          <mxGeometry x="361" y="310" width="80" height="50" as="geometry" />
        </mxCell>
        <mxCell id="t2zR8JG1Dq7IRGJ8YDr1-67" value="Pregled svih&lt;div&gt;naloga&lt;/div&gt;" style="rounded=1;whiteSpace=wrap;html=1;" parent="1" vertex="1">
          <mxGeometry x="361" y="380" width="80" height="50" as="geometry" />
        </mxCell>
        <mxCell id="t2zR8JG1Dq7IRGJ8YDr1-72" value="" style="endArrow=none;html=1;rounded=0;" parent="1" edge="1">
          <mxGeometry width="50" height="50" relative="1" as="geometry">
            <mxPoint x="560" y="530" as="sourcePoint" />
            <mxPoint x="560" y="230" as="targetPoint" />
            <Array as="points">
              <mxPoint x="560" y="220" />
            </Array>
          </mxGeometry>
        </mxCell>
        <mxCell id="t2zR8JG1Dq7IRGJ8YDr1-74" value="Pregled&amp;nbsp;&lt;div&gt;dodijeljenih&lt;br&gt;&lt;div&gt;naloga&lt;/div&gt;&lt;/div&gt;" style="rounded=1;whiteSpace=wrap;html=1;" parent="1" vertex="1">
          <mxGeometry x="600" y="240" width="80" height="50" as="geometry" />
        </mxCell>
        <mxCell id="TcXRs2jZcjVELC_aoPdt-3" value="Prijava&amp;nbsp;&lt;br&gt;&lt;span style=&quot;background-color: initial;&quot;&gt;naloga&lt;/span&gt;" style="rounded=1;whiteSpace=wrap;html=1;" parent="1" vertex="1">
          <mxGeometry x="120" y="240" width="80" height="50" as="geometry" />
        </mxCell>
        <mxCell id="TcXRs2jZcjVELC_aoPdt-15" value="Upravljanje&lt;div&gt;zaposlenicima&lt;/div&gt;" style="rounded=1;whiteSpace=wrap;html=1;" parent="1" vertex="1">
          <mxGeometry x="361" y="240" width="80" height="50" as="geometry" />
        </mxCell>
        <mxCell id="Ml7sm4U--j-oLenQAUOs-1" value="" style="endArrow=none;html=1;rounded=0;" parent="1" edge="1">
          <mxGeometry width="50" height="50" relative="1" as="geometry">
            <mxPoint x="80" y="264.5" as="sourcePoint" />
            <mxPoint x="120" y="264.5" as="targetPoint" />
          </mxGeometry>
        </mxCell>
        <mxCell id="Ml7sm4U--j-oLenQAUOs-2" value="" style="endArrow=none;html=1;rounded=0;" parent="1" edge="1">
          <mxGeometry width="50" height="50" relative="1" as="geometry">
            <mxPoint x="321" y="264.5" as="sourcePoint" />
            <mxPoint x="361" y="264.5" as="targetPoint" />
          </mxGeometry>
        </mxCell>
        <mxCell id="Ml7sm4U--j-oLenQAUOs-3" value="" style="endArrow=none;html=1;rounded=0;" parent="1" edge="1">
          <mxGeometry width="50" height="50" relative="1" as="geometry">
            <mxPoint x="560" y="264.5" as="sourcePoint" />
            <mxPoint x="600" y="264.5" as="targetPoint" />
          </mxGeometry>
        </mxCell>
        <mxCell id="Ml7sm4U--j-oLenQAUOs-5" value="" style="endArrow=none;html=1;rounded=0;" parent="1" edge="1">
          <mxGeometry width="50" height="50" relative="1" as="geometry">
            <mxPoint x="80" y="334.5" as="sourcePoint" />
            <mxPoint x="120" y="334.5" as="targetPoint" />
          </mxGeometry>
        </mxCell>
        <mxCell id="Ml7sm4U--j-oLenQAUOs-8" value="" style="endArrow=none;html=1;rounded=0;" parent="1" edge="1">
          <mxGeometry width="50" height="50" relative="1" as="geometry">
            <mxPoint x="80" y="404.5" as="sourcePoint" />
            <mxPoint x="120" y="404.5" as="targetPoint" />
          </mxGeometry>
        </mxCell>
        <mxCell id="Ml7sm4U--j-oLenQAUOs-9" value="" style="endArrow=none;html=1;rounded=0;" parent="1" edge="1">
          <mxGeometry width="50" height="50" relative="1" as="geometry">
            <mxPoint x="321" y="334.5" as="sourcePoint" />
            <mxPoint x="361" y="334.5" as="targetPoint" />
          </mxGeometry>
        </mxCell>
        <mxCell id="Ml7sm4U--j-oLenQAUOs-10" value="" style="endArrow=none;html=1;rounded=0;" parent="1" edge="1">
          <mxGeometry width="50" height="50" relative="1" as="geometry">
            <mxPoint x="321" y="404.5" as="sourcePoint" />
            <mxPoint x="361" y="404.5" as="targetPoint" />
          </mxGeometry>
        </mxCell>
        <mxCell id="ocitNbEmRb2EH8fTyLSK-1" value="Unos i obrada izvještaja" style="rounded=1;whiteSpace=wrap;html=1;" vertex="1" parent="1">
          <mxGeometry x="600" y="380" width="80" height="50" as="geometry" />
        </mxCell>
        <mxCell id="ocitNbEmRb2EH8fTyLSK-2" value="Pregled izvršenih naloga" style="rounded=1;whiteSpace=wrap;html=1;" vertex="1" parent="1">
          <mxGeometry x="600" y="450" width="80" height="50" as="geometry" />
        </mxCell>
        <mxCell id="ocitNbEmRb2EH8fTyLSK-4" value="Rad na&amp;nbsp;&lt;div&gt;nalogu&lt;/div&gt;" style="rounded=1;whiteSpace=wrap;html=1;" vertex="1" parent="1">
          <mxGeometry x="600" y="310" width="80" height="50" as="geometry" />
        </mxCell>
        <mxCell id="ocitNbEmRb2EH8fTyLSK-6" value="" style="endArrow=none;html=1;rounded=0;" edge="1" parent="1">
          <mxGeometry width="50" height="50" relative="1" as="geometry">
            <mxPoint x="560" y="334.5" as="sourcePoint" />
            <mxPoint x="600" y="334.5" as="targetPoint" />
          </mxGeometry>
        </mxCell>
        <mxCell id="ocitNbEmRb2EH8fTyLSK-7" value="" style="endArrow=none;html=1;rounded=0;" edge="1" parent="1">
          <mxGeometry width="50" height="50" relative="1" as="geometry">
            <mxPoint x="560" y="404.5" as="sourcePoint" />
            <mxPoint x="600" y="404.5" as="targetPoint" />
          </mxGeometry>
        </mxCell>
        <mxCell id="ocitNbEmRb2EH8fTyLSK-10" value="" style="endArrow=none;html=1;rounded=0;" edge="1" parent="1">
          <mxGeometry width="50" height="50" relative="1" as="geometry">
            <mxPoint x="560" y="474.5" as="sourcePoint" />
            <mxPoint x="600" y="474.5" as="targetPoint" />
          </mxGeometry>
        </mxCell>
      </root>
    </mxGraphModel>
  </diagram>
</mxfile>
